<svg width="165" height="224" viewBox="0 0 165 224" fill="none" xmlns="http://www.w3.org/2000/svg">
<path opacity="0.2" d="M-59.0984 184.193L26.7469 97.7191L-85.294 144.732L-86.7005 141.387L25.4394 94.3326H-96V90.7045H25.4326L-86.8771 44.0887L-85.4837 40.7383L26.8118 87.3482L-59.0984 0.808643L-56.5197 -1.74611L29.2687 84.6707L-17.3879 -28.1846L-14.0311 -29.5695L32.6711 83.396V-39H36.3028V83.2868L82.5027 -29.743L85.865 -28.3715L39.6318 84.7398L125.489 -1.74611L128.067 0.808643L42.2091 87.296L154.278 40.2717L155.685 43.6167L43.4642 90.7045H165V94.3326H43.639L155.855 140.91L154.462 144.26L42.1448 97.6412L128.067 184.193L125.489 186.748L39.6524 100.283L86.3288 213.186L82.972 214.571L36.3028 101.685V224H32.6711V101.77L-13.5222 214.783L-16.8845 213.412L29.3832 100.216L-56.5197 186.748L-59.0984 184.193Z" fill="#ECB8BA"/>
</svg>
