<svg width="36" height="36" viewBox="0 0 36 36" fill="none" xmlns="http://www.w3.org/2000/svg">
<rect x="0.5" y="0.5" width="35" height="35" rx="4.5" fill="#EEEEEE"/>
<g opacity="0.4">
<path fill-rule="evenodd" clip-rule="evenodd" d="M23.9024 17.5C23.9024 21.036 21.036 23.9024 17.5 23.9024C13.964 23.9024 11.0976 21.036 11.0976 17.5C11.0976 13.964 13.964 11.0976 17.5 11.0976C21.036 11.0976 23.9024 13.964 23.9024 17.5ZM17.5 25C21.6421 25 25 21.6421 25 17.5C25 13.3579 21.6421 10 17.5 10C13.3579 10 10 13.3579 10 17.5C10 21.6421 13.3579 25 17.5 25ZM24.0974 23.1883C23.8464 22.9372 23.4393 22.9372 23.1883 23.1883C22.9372 23.4393 22.9372 23.8464 23.1883 24.0974L24.9026 25.8117C25.1536 26.0628 25.5607 26.0628 25.8117 25.8117C26.0628 25.5607 26.0628 25.1536 25.8117 24.9026L24.0974 23.1883Z" fill="#130F26"/>
</g>
<rect x="0.5" y="0.5" width="35" height="35" rx="4.5" stroke="#EEEEEE"/>
</svg>
