<svg width="121" height="38" viewBox="0 0 121 38" fill="none" xmlns="http://www.w3.org/2000/svg">
<g filter="url(#filter0_ii_1_102)">
<rect width="121" height="38" rx="4" fill="#50BEA7"/>
<path d="M26.492 23H28.664L25.616 14.576H23.24L20.192 23H22.34L22.844 21.512H25.988L26.492 23ZM25.46 19.928H23.384L24.416 16.844L25.46 19.928ZM32.7477 14.576H29.5917V23H32.7477C35.4357 23 37.1637 21.284 37.1637 18.788C37.1637 16.28 35.4357 14.576 32.7477 14.576ZM31.6437 21.224V16.328H32.6157C34.1637 16.328 35.0757 17.24 35.0757 18.788C35.0757 20.336 34.1637 21.224 32.6157 21.224H31.6437ZM41.4664 14.576H38.3104V23H41.4664C44.1544 23 45.8824 21.284 45.8824 18.788C45.8824 16.28 44.1544 14.576 41.4664 14.576ZM40.3624 21.224V16.328H41.3344C42.8824 16.328 43.7944 17.24 43.7944 18.788C43.7944 20.336 42.8824 21.224 41.3344 21.224H40.3624ZM49.1161 16.22H51.3481V23H53.4001V16.22H55.6321V14.576H49.1161V16.22ZM64.954 18.764C64.954 16.232 63.046 14.456 60.646 14.456C58.258 14.456 56.314 16.232 56.314 18.764C56.314 21.296 58.258 23.084 60.646 23.084C63.034 23.084 64.954 21.296 64.954 18.764ZM58.414 18.764C58.414 17.264 59.278 16.316 60.646 16.316C61.99 16.316 62.866 17.264 62.866 18.764C62.866 20.24 61.99 21.212 60.646 21.212C59.278 21.212 58.414 20.24 58.414 18.764ZM68.2905 18.776C68.2905 21.296 70.0425 23.06 72.5265 23.06C74.5305 23.06 76.0425 21.944 76.5225 20.12H74.2665C73.9185 20.84 73.2825 21.2 72.5025 21.2C71.2425 21.2 70.3785 20.264 70.3785 18.776C70.3785 17.288 71.2425 16.352 72.5025 16.352C73.2825 16.352 73.9185 16.712 74.2665 17.432H76.5225C76.0425 15.608 74.5305 14.48 72.5265 14.48C70.0425 14.48 68.2905 16.256 68.2905 18.776ZM83.5272 23H85.6992L82.6512 14.576H80.2752L77.2272 23H79.3752L79.8792 21.512H83.0232L83.5272 23ZM82.4952 19.928H80.4192L81.4512 16.844L82.4952 19.928ZM91.0788 17.312C91.0788 17.972 90.7188 18.368 89.9508 18.368H88.6788V16.28H89.9508C90.7188 16.28 91.0788 16.688 91.0788 17.312ZM86.6268 14.576V23H88.6788V19.82H89.1708L90.9228 23H93.2388L91.2948 19.664C92.5908 19.28 93.1668 18.284 93.1668 17.228C93.1668 15.764 92.1348 14.576 90.0708 14.576H86.6268ZM93.9989 16.22H96.2309V23H98.2829V16.22H100.515V14.576H93.9989V16.22Z" fill="white"/>
</g>
<defs>
<filter id="filter0_ii_1_102" x="-4" y="-6" width="129" height="50" filterUnits="userSpaceOnUse" color-interpolation-filters="sRGB">
<feFlood flood-opacity="0" result="BackgroundImageFix"/>
<feBlend mode="normal" in="SourceGraphic" in2="BackgroundImageFix" result="shape"/>
<feColorMatrix in="SourceAlpha" type="matrix" values="0 0 0 0 0 0 0 0 0 0 0 0 0 0 0 0 0 0 127 0" result="hardAlpha"/>
<feOffset dx="-4" dy="-6"/>
<feGaussianBlur stdDeviation="4"/>
<feComposite in2="hardAlpha" operator="arithmetic" k2="-1" k3="1"/>
<feColorMatrix type="matrix" values="0 0 0 0 0 0 0 0 0 0 0 0 0 0 0 0 0 0 0.1 0"/>
<feBlend mode="normal" in2="shape" result="effect1_innerShadow_1_102"/>
<feColorMatrix in="SourceAlpha" type="matrix" values="0 0 0 0 0 0 0 0 0 0 0 0 0 0 0 0 0 0 127 0" result="hardAlpha"/>
<feOffset dx="4" dy="6"/>
<feGaussianBlur stdDeviation="4"/>
<feComposite in2="hardAlpha" operator="arithmetic" k2="-1" k3="1"/>
<feColorMatrix type="matrix" values="0 0 0 0 1 0 0 0 0 1 0 0 0 0 1 0 0 0 0.4 0"/>
<feBlend mode="normal" in2="effect1_innerShadow_1_102" result="effect2_innerShadow_1_102"/>
</filter>
</defs>
</svg>
