<svg width="270" height="331" viewBox="0 0 270 331" fill="none" xmlns="http://www.w3.org/2000/svg">
<path opacity="0.2" d="M-44.2529 274.303L76.1279 152.916L-80.987 218.909L-82.9593 214.214L74.2944 148.163H-96V143.07H74.2848L-83.207 77.6339L-81.2529 72.9308L76.2188 138.358L-44.2529 16.8805L-40.6368 13.2943L79.6642 134.6L14.2377 -23.8181L18.9449 -25.7622L84.4353 132.811V-39H89.5281V132.657L154.314 -26.0057L159.029 -24.0805L94.1963 134.697L214.593 13.2943L218.21 16.8805L97.8104 138.285L254.965 72.2759L256.937 76.9714L99.5705 143.07H270V148.163H99.8157L257.176 213.544L255.222 218.247L97.7203 152.807L218.21 274.303L214.593 277.889L94.2252 156.515L159.679 315L154.972 316.945L89.5281 158.484V330.18H84.4353V158.602L19.6585 317.242L14.9436 315.317L79.8247 156.421L-40.6368 277.889L-44.2529 274.303Z" fill="#ECB8BA"/>
</svg>
